{
  "accessors": {
    "accessor_16": {
      "bufferView": "bufferView_1",
      "byteOffset": 0,
      "byteStride": 0,
      "componentType": 5123,
      "count": 36,
      "type": "SCALAR",
      "min": [
        0
      ],
      "max": [
        35
      ]
    },
    "accessor_18": {
      "bufferView": "bufferView_0",
      "byteOffset": 0,
      "byteStride": 0,
      "componentType": 5123,
      "count": 28,
      "max": [
        65535,
        65535,
        65535
      ],
      "min": [
        0,
        0,
        0
      ],
      "type": "VEC3",
      "extensions": {
        "WEB3D_quantized_attributes": {
          "decodedMin": [
            -1,
            -1,
            -1
          ],
          "decodedMax": [
            1,
            1,
            1
          ],
          "decodeMatrix": [
            0.000030518043793392844,
            0,
            0,
            0,
            0,
            0.000030518043793392844,
            0,
            0,
            0,
            0,
            0.000030518043793392844,
            0,
            -1,
            -1,
            -1,
            1
          ]
        }
      }
    },
    "accessor_20": {
      "bufferView": "bufferView_0",
      "byteOffset": 168,
      "byteStride": 0,
      "componentType": 5121,
      "count": 28,
      "max": [
        255,
        255
      ],
      "min": [
        0,
        0
      ],
      "type": "VEC2"
    }
  },
  "animations": {},
  "asset": {
    "generator": "collada2gltf@",
    "premultipliedAlpha": true,
    "profile": {
      "api": "WebGL",
      "version": "1.0.2"
    },
    "version": "1.0"
  },
  "bufferViews": {
    "bufferView_0": {
      "buffer": "buffer_0",
      "byteLength": 224,
      "byteOffset": 0,
      "target": 34962
    },
    "bufferView_1": {
      "buffer": "buffer_0",
      "byteLength": 72,
      "byteOffset": 224,
      "target": 34963
    }
  },
  "buffers": {
    "buffer_0": {
      "type": "arraybuffer",
      "byteLength": 296,
      "uri": "data:application/octet-stream;base64,"
    }
  },
  "cameras": {
    "Camera-camera": {
      "name": "Camera",
      "perspective": {
        "aspectRatio": 1.7777799367904663,
        "yfov": 0.4823742787078873,
        "zfar": 100,
        "znear": 0.10000000149011609
      },
      "type": "perspective"
    }
  },
  "materials": {
    "Material-effect": {
      "name": "Material",
      "technique": "technique0",
      "values": {
        "ambient": [
          0,
          0,
          0,
          1
        ],
        "diffuse": [
          0.6399999856948853,
          0.6399999856948853,
          0.6399999856948853,
          1
        ],
        "emission": [
          0,
          0,
          0,
          1
        ],
        "shininess": 50,
        "specular": [
          0.5,
          0.5,
          0.5,
          1
        ]
      }
    }
  },
  "meshes": {
    "Cube-mesh": {
      "name": "Cube",
      "primitives": [
        {
          "attributes": {
            "NORMAL": "accessor_20",
            "POSITION": "accessor_18"
          },
          "indices": "accessor_16",
          "material": "Material-effect",
          "mode": 4
        }
      ]
    }
  },
  "nodes": {
    "Camera": {
      "camera": "Camera-camera",
      "children": [],
      "matrix": [
        0.6858810186386108,
        0.7276340126991272,
        -0.0108168004080653,
        0,
        -0.3173699975013733,
        0.3124690055847168,
        0.895343005657196,
        0,
        0.6548619866371155,
        -0.6106659770011902,
        0.4452449977397918,
        0,
        7.481129646301269,
        -6.5076398849487305,
        5.3436598777771005,
        1
      ],
      "name": "Camera"
    },
    "Lamp": {
      "children": [],
      "matrix": [
        -0.2908650040626526,
        0.95517098903656,
        -0.055189099162817,
        0,
        -0.7711009979248047,
        -0.1998829990625381,
        0.6045249700546265,
        0,
        0.5663930177688599,
        0.2183910012245178,
        0.7946720123291016,
        0,
        4.076250076293945,
        1.0054500102996826,
        5.903859615325929,
        1
      ],
      "name": "Lamp"
    },
    "node_3": {
      "children": [
        "Camera",
        "Lamp"
      ],
      "matrix": [
        1,
        0,
        0,
        0,
        0,
        0,
        -1,
        0,
        0,
        1,
        0,
        0,
        0,
        0,
        0,
        1
      ],
      "name": "Y_UP_Transform",
      "meshes": []
    },
    "rootNode_0": {
      "children": [
        "node_3"
      ],
      "meshes": [
        "Cube-mesh"
      ],
      "matrix": [
        1,
        0,
        0,
        0,
        0,
        1,
        0,
        0,
        0,
        0,
        1,
        0,
        0,
        0,
        0,
        1
      ]
    }
  },
  "programs": {
    "program_0": {
      "attributes": [
        "a_normal",
        "a_position"
      ],
      "fragmentShader": "input0FS",
      "vertexShader": "input0VS"
    }
  },
  "scene": "defaultScene",
  "scenes": {
    "defaultScene": {
      "nodes": [
        "rootNode_0"
      ]
    }
  },
  "shaders": {
    "input0FS": {
      "type": 35632,
      "uri": "data:text/plain;base64,"
    },
    "input0VS": {
      "type": 35633,
      "uri": "data:text/plain;base64,"
    }
  },
  "skins": {},
  "techniques": {
    "technique0": {
      "attributes": {
        "a_normal": "normal",
        "a_position": "position"
      },
      "parameters": {
        "ambient": {
          "type": 35666
        },
        "diffuse": {
          "type": 35666
        },
        "emission": {
          "type": 35666
        },
        "light0Color": {
          "type": 35665,
          "value": [
            1,
            1,
            1
          ]
        },
        "light0ConstantAttenuation": {
          "type": 5126,
          "value": 1
        },
        "light0LinearAttenuation": {
          "type": 5126,
          "value": 0
        },
        "light0QuadraticAttenuation": {
          "type": 5126,
          "value": 0.0011110899504274
        },
        "light0Transform": {
          "node": "Lamp",
          "semantic": "MODELVIEW",
          "type": 35676
        },
        "modelViewMatrix": {
          "semantic": "MODELVIEW",
          "type": 35676
        },
        "normal": {
          "semantic": "NORMAL",
          "type": 35667
        },
        "normalMatrix": {
          "semantic": "MODELVIEWINVERSETRANSPOSE",
          "type": 35675
        },
        "position": {
          "semantic": "POSITION",
          "type": 35665
        },
        "projectionMatrix": {
          "semantic": "PROJECTION",
          "type": 35676
        },
        "shininess": {
          "type": 5126
        },
        "specular": {
          "type": 35666
        }
      },
      "program": "program_0",
      "states": {
        "enable": [
          2929,
          2884
        ],
        "disable": []
      },
      "uniforms": {
        "u_ambient": "ambient",
        "u_diffuse": "diffuse",
        "u_emission": "emission",
        "u_light0Color": "light0Color",
        "u_light0ConstantAttenuation": "light0ConstantAttenuation",
        "u_light0LinearAttenuation": "light0LinearAttenuation",
        "u_light0QuadraticAttenuation": "light0QuadraticAttenuation",
        "u_light0Transform": "light0Transform",
        "u_modelViewMatrix": "modelViewMatrix",
        "u_normalMatrix": "normalMatrix",
        "u_projectionMatrix": "projectionMatrix",
        "u_shininess": "shininess",
        "u_specular": "specular"
      }
    }
  },
  "images": {},
  "samplers": {},
  "textures": {},
  "extensionsUsed": [
    "WEB3D_quantized_attributes"
  ]
}
